<?xml version="1.0" encoding="utf-8"?>
<svg id="master-artboard" viewBox="0 0 2340 1560" version="1.1" xmlns="http://www.w3.org/2000/svg" x="0px" y="0px" width="2340px" height="1560px" enable-background="new 0 0 2340 1560">
<metadata><!--?xpacket begin="﻿" id="W5M0MpCehiHzreSzNTczkc9d"?-->

                                                                                                    
                                                                                                    
                                                                                                    
                                                                                                    
                                                                                                    
                                                                                                    
                                                                                                    
                                                                                                    
                                                                                                    
                                                                                                    
                                                                                                    
                                                                                                    
                                                                                                    
                                                                                                    
                                                                                                    
                                                                                                    
                                                                                                    
                                                                                                    
                                                                                                    
                                                                                                    
                           
<!--?xpacket end="w"?-->
	</metadata>
<g>
	<path fill="#3C1F4D" d="M815.233,996.656c-12.909,0-22.743-3.589-29.502-10.77c-6.76-7.179-10.14-17.375-10.14-30.591&#10;&#9;&#9;c0-6.567,1.031-12.431,3.094-17.586c2.062-5.156,4.887-9.51,8.478-13.062c3.589-3.552,7.866-6.244,12.832-8.077&#10;&#9;&#9;c4.964-1.833,10.349-2.75,16.155-2.75c3.36,0,6.416,0.249,9.166,0.745c2.75,0.497,5.156,1.07,7.218,1.719&#10;&#9;&#9;c2.062,0.649,3.781,1.317,5.156,2.005c1.375,0.688,2.366,1.223,2.979,1.604l-5.156,14.437c-2.445-1.298-5.29-2.406-8.536-3.323&#10;&#9;&#9;c-3.247-0.916-6.931-1.375-11.056-1.375c-2.75,0-5.442,0.459-8.077,1.375c-2.635,0.917-4.966,2.389-6.989,4.411&#10;&#9;&#9;c-2.025,2.024-3.648,4.641-4.869,7.849c-1.223,3.208-1.833,7.104-1.833,11.687c0,3.666,0.401,7.085,1.203,10.254&#10;&#9;&#9;c0.802,3.17,2.1,5.9,3.896,8.191c1.794,2.292,4.143,4.106,7.046,5.442c2.902,1.337,6.416,2.005,10.541,2.005&#10;&#9;&#9;c2.596,0,4.926-0.152,6.989-0.458c2.062-0.305,3.896-0.668,5.5-1.089c1.604-0.419,3.016-0.896,4.239-1.432&#10;&#9;&#9;c1.221-0.533,2.329-1.031,3.323-1.489l4.927,14.321c-2.521,1.528-6.072,2.903-10.655,4.124&#10;&#9;&#9;C826.576,996.045,821.266,996.656,815.233,996.656z"/>
	<path fill="#3C1F4D" d="M876.528,914.738c11.916,0,21.042,2.119,27.383,6.358c6.339,4.239,9.509,10.827,9.509,19.764&#10;&#9;&#9;c0,5.576-1.28,10.102-3.838,13.577c-2.56,3.477-6.244,6.206-11.056,8.191c1.604,1.987,3.283,4.259,5.042,6.817&#10;&#9;&#9;c1.756,2.56,3.494,5.232,5.213,8.02c1.719,2.789,3.38,5.691,4.984,8.708c1.604,3.018,3.093,5.977,4.468,8.879h-19.98&#10;&#9;&#9;c-1.457-2.596-2.934-5.23-4.429-7.905c-1.495-2.673-3.027-5.271-4.599-7.791s-3.125-4.907-4.658-7.161&#10;&#9;&#9;c-1.534-2.252-3.068-4.296-4.601-6.129h-8.822v28.986H853.27V916.8c3.896-0.762,7.923-1.298,12.087-1.604&#10;&#9;&#9;C869.52,914.892,873.243,914.738,876.528,914.738z M877.56,929.976c-1.3,0-2.463,0.04-3.495,0.115&#10;&#9;&#9;c-1.031,0.077-2.005,0.153-2.921,0.229v21.54h5.041c6.72,0,11.532-0.84,14.436-2.521c2.902-1.68,4.354-4.544,4.354-8.593&#10;&#9;&#9;c0-3.896-1.471-6.663-4.411-8.307C887.622,930.798,883.288,929.976,877.56,929.976z"/>
	<path fill="#3C1F4D" d="M929.688,995.053v-79.398h53.62v15.009h-35.746v15.582h31.736v14.665h-31.736v19.134h38.381v15.009H929.688&#10;&#9;&#9;z"/>
	<path fill="#3C1F4D" d="M1052.385,995.053c-0.884-2.759-1.833-5.593-2.85-8.5c-1.017-2.907-2.03-5.804-3.038-8.686h-31.01&#10;&#9;&#9;c-1.002,2.896-2.009,5.798-3.015,8.709c-1.008,2.911-1.946,5.737-2.814,8.477h-18.561c2.988-8.554,5.822-16.459,8.503-23.717&#10;&#9;&#9;c2.682-7.255,5.305-14.092,7.872-20.508s5.095-12.506,7.585-18.274c2.49-5.766,5.077-11.399,7.759-16.899h16.942&#10;&#9;&#9;c2.608,5.5,5.179,11.134,7.712,16.899c2.531,5.769,5.084,11.858,7.655,18.274s5.199,13.253,7.884,20.508&#10;&#9;&#9;c2.686,7.258,5.525,15.163,8.518,23.717H1052.385z M1030.912,933.643c-0.399,1.152-0.983,2.723-1.751,4.706&#10;&#9;&#9;c-0.768,1.985-1.642,4.278-2.623,6.88c-0.981,2.601-2.079,5.465-3.291,8.593c-1.212,3.127-2.443,6.407-3.695,9.839h22.705&#10;&#9;&#9;c-1.216-3.442-2.392-6.733-3.53-9.869c-1.139-3.137-2.222-6.006-3.246-8.609c-1.026-2.601-1.924-4.893-2.698-6.876&#10;&#9;&#9;C1032.011,936.324,1031.386,934.771,1030.912,933.643z"/>
	<path fill="#3C1F4D" d="M1081.723,915.654h17.874v79.398h-17.874V915.654z"/>
	<path fill="#3C1F4D" d="M1171.203,995.053c-5.118-9.089-10.655-18.063-16.613-26.925c-5.958-8.859-12.298-17.223-19.019-25.091&#10;&#9;&#9;v52.016h-17.644v-79.398h14.551c2.521,2.521,5.308,5.614,8.364,9.28c3.054,3.667,6.167,7.582,9.337,11.744&#10;&#9;&#9;c3.169,4.164,6.319,8.479,9.452,12.946c3.131,4.469,6.072,8.765,8.822,12.89v-46.86h17.759v79.398H1171.203z"/>
	<path fill="#3C1F4D" d="M1204.543,995.053v-79.398h53.162v15.009h-35.289v16.613h31.393v15.009h-31.393v32.768H1204.543z"/>
	<path fill="#3C1F4D" d="M1270.307,915.654h17.873v79.398h-17.873V915.654z"/>
	<path fill="#3C1F4D" d="M1359.785,995.053c-5.117-9.089-10.654-18.063-16.611-26.925c-5.959-8.859-12.299-17.223-19.02-25.091&#10;&#9;&#9;v52.016h-17.645v-79.398h14.551c2.521,2.521,5.309,5.614,8.363,9.28c3.055,3.667,6.168,7.582,9.338,11.744&#10;&#9;&#9;c3.168,4.164,6.32,8.479,9.453,12.946c3.131,4.469,6.072,8.765,8.82,12.89v-46.86h17.76v79.398H1359.785z"/>
	<path fill="#3C1F4D" d="M1393.127,915.654H1411v79.398h-17.873V915.654z"/>
	<path fill="#3C1F4D" d="M1488.221,915.654v15.238h-23.945v64.16h-17.873v-64.16h-23.947v-15.238H1488.221z"/>
	<path fill="#3C1F4D" d="M1532.65,948.22c3.213-5.408,6.27-10.816,9.178-16.225c2.904-5.408,5.582-10.855,8.031-16.341h19.705&#10;&#9;&#9;c-4.354,8.556-8.861,16.842-13.52,24.862c-4.66,8.021-9.586,16.079-14.779,24.175v30.361h-17.873V964.92&#10;&#9;&#9;c-5.195-8.095-10.141-16.191-14.838-24.289c-4.697-8.095-9.223-16.421-13.576-24.977h20.738c2.439,5.485,5.07,10.933,7.895,16.341&#10;&#9;&#9;C1526.432,937.403,1529.447,942.812,1532.65,948.22z"/>
</g>
<g>
	<path fill="#941C71" d="M793.707,1054.844c0.885,0,1.615-0.072,2.192-0.221c0.576-0.146,1.039-0.348,1.388-0.604&#10;&#9;&#9;c0.348-0.254,0.59-0.557,0.724-0.904c0.134-0.35,0.201-0.738,0.201-1.168c0-0.91-0.429-1.668-1.287-2.271&#10;&#9;&#9;c-0.859-0.604-2.333-1.254-4.425-1.951c-0.912-0.322-1.824-0.691-2.735-1.107c-0.912-0.414-1.73-0.938-2.454-1.568&#10;&#9;&#9;c-0.724-0.629-1.314-1.395-1.77-2.293s-0.684-1.99-0.684-3.279c0-1.287,0.241-2.445,0.724-3.479&#10;&#9;&#9;c0.482-1.033,1.167-1.912,2.052-2.635c0.885-0.725,1.957-1.281,3.218-1.67c1.26-0.389,2.682-0.584,4.264-0.584&#10;&#9;&#9;c1.877,0,3.5,0.201,4.868,0.604s2.494,0.846,3.379,1.328l-1.81,4.947c-0.778-0.402-1.643-0.756-2.595-1.064&#10;&#9;&#9;c-0.952-0.309-2.099-0.463-3.439-0.463c-1.502,0-2.582,0.207-3.238,0.623c-0.657,0.416-0.985,1.053-0.985,1.91&#10;&#9;&#9;c0,0.51,0.121,0.939,0.362,1.287c0.241,0.35,0.583,0.664,1.026,0.945c0.442,0.283,0.952,0.537,1.529,0.766&#10;&#9;&#9;c0.576,0.229,1.213,0.463,1.911,0.703c1.448,0.537,2.708,1.066,3.781,1.59c1.072,0.521,1.964,1.133,2.675,1.83&#10;&#9;&#9;c0.71,0.697,1.24,1.516,1.589,2.453c0.348,0.939,0.523,2.078,0.523,3.42c0,2.602-0.912,4.619-2.735,6.055&#10;&#9;&#9;c-1.824,1.434-4.573,2.152-8.247,2.152c-1.234,0-2.347-0.074-3.339-0.223c-0.993-0.146-1.871-0.328-2.635-0.543&#10;&#9;&#9;c-0.764-0.213-1.421-0.441-1.971-0.684c-0.55-0.24-1.013-0.469-1.388-0.684l1.77-4.988c0.831,0.457,1.857,0.865,3.078,1.227&#10;&#9;&#9;C790.441,1054.664,791.937,1054.844,793.707,1054.844z"/>
	<path fill="#941C71" d="M857.104,1054.24v5.391h-18.625v-27.877h6.275v22.486H857.104z"/>
	<path fill="#941C71" d="M916.639,1045.672c0,2.389-0.356,4.486-1.066,6.297c-0.711,1.809-1.683,3.324-2.917,4.545&#10;&#9;&#9;c-1.234,1.221-2.702,2.139-4.405,2.756c-1.703,0.617-3.534,0.926-5.491,0.926c-1.904,0-3.701-0.309-5.39-0.926&#10;&#9;&#9;c-1.69-0.617-3.165-1.535-4.425-2.756c-1.261-1.221-2.252-2.736-2.977-4.545c-0.724-1.811-1.086-3.908-1.086-6.297&#10;&#9;&#9;c0-2.387,0.375-4.484,1.126-6.295c0.75-1.811,1.763-3.332,3.037-4.566c1.273-1.232,2.749-2.158,4.425-2.775&#10;&#9;&#9;c1.676-0.617,3.439-0.926,5.29-0.926c1.904,0,3.701,0.309,5.391,0.926s3.164,1.543,4.425,2.775c1.26,1.234,2.252,2.756,2.977,4.566&#10;&#9;&#9;S916.639,1043.285,916.639,1045.672z M895.358,1045.672c0,1.369,0.167,2.602,0.503,3.701c0.335,1.1,0.818,2.045,1.448,2.836&#10;&#9;&#9;c0.63,0.791,1.401,1.402,2.313,1.83c0.912,0.43,1.958,0.645,3.138,0.645c1.153,0,2.192-0.215,3.118-0.645&#10;&#9;&#9;c0.925-0.428,1.703-1.039,2.333-1.83c0.63-0.791,1.112-1.736,1.448-2.836c0.335-1.1,0.502-2.332,0.502-3.701&#10;&#9;&#9;c0-1.367-0.167-2.607-0.502-3.721c-0.336-1.113-0.818-2.064-1.448-2.855c-0.63-0.791-1.408-1.402-2.333-1.83&#10;&#9;&#9;c-0.925-0.43-1.965-0.645-3.118-0.645c-1.18,0-2.226,0.221-3.138,0.664c-0.912,0.441-1.683,1.061-2.313,1.85&#10;&#9;&#9;c-0.63,0.793-1.113,1.744-1.448,2.857C895.525,1043.105,895.358,1044.332,895.358,1045.672z"/>
	<path fill="#941C71" d="M964.427,1036.58c-2.923,0-5.035,0.813-6.335,2.436c-1.301,1.623-1.951,3.842-1.951,6.656&#10;&#9;&#9;c0,1.369,0.161,2.609,0.482,3.721c0.322,1.113,0.805,2.072,1.448,2.877s1.448,1.428,2.414,1.871&#10;&#9;&#9;c0.966,0.441,2.092,0.664,3.379,0.664c0.697,0,1.293-0.014,1.79-0.041c0.496-0.025,0.932-0.08,1.308-0.16v-9.695h6.275v13.799&#10;&#9;&#9;c-0.751,0.295-1.958,0.609-3.621,0.945c-1.663,0.334-3.715,0.502-6.155,0.502c-2.092,0-3.989-0.322-5.692-0.965&#10;&#9;&#9;c-1.703-0.645-3.158-1.582-4.364-2.816c-1.207-1.232-2.139-2.748-2.796-4.545c-0.658-1.797-0.986-3.85-0.986-6.156&#10;&#9;&#9;c0-2.332,0.362-4.396,1.086-6.195c0.724-1.795,1.716-3.318,2.977-4.564c1.26-1.248,2.742-2.193,4.445-2.836&#10;&#9;&#9;c1.703-0.645,3.52-0.967,5.451-0.967c1.314,0,2.5,0.088,3.56,0.262c1.059,0.176,1.971,0.377,2.736,0.604&#10;&#9;&#9;c0.764,0.229,1.394,0.463,1.891,0.705c0.496,0.24,0.851,0.428,1.066,0.563l-1.81,5.029c-0.859-0.457-1.844-0.852-2.957-1.188&#10;&#9;&#9;C966.955,1036.748,965.741,1036.58,964.427,1036.58z"/>
	<path fill="#941C71" d="M1026.736,1059.631c-0.311-0.969-0.644-1.963-1.001-2.984c-0.357-1.02-0.712-2.037-1.066-3.049h-10.888&#10;&#9;&#9;c-0.352,1.016-0.706,2.035-1.059,3.057c-0.354,1.023-0.683,2.016-0.988,2.977h-6.517c1.049-3.002,2.044-5.779,2.985-8.326&#10;&#9;&#9;c0.942-2.549,1.863-4.949,2.764-7.201s1.789-4.391,2.663-6.416c0.874-2.025,1.783-4.002,2.724-5.934h5.949&#10;&#9;&#9;c0.916,1.932,1.818,3.908,2.708,5.934c0.889,2.025,1.785,4.164,2.688,6.416c0.902,2.252,1.825,4.652,2.768,7.201&#10;&#9;&#9;c0.943,2.547,1.939,5.324,2.991,8.326H1026.736z M1019.196,1038.07c-0.14,0.404-0.345,0.955-0.615,1.652s-0.576,1.502-0.921,2.414&#10;&#9;&#9;c-0.344,0.914-0.729,1.92-1.155,3.018c-0.425,1.098-0.858,2.25-1.297,3.455h7.972c-0.427-1.209-0.84-2.365-1.24-3.465&#10;&#9;&#9;c-0.4-1.102-0.78-2.109-1.14-3.023s-0.675-1.719-0.947-2.414C1019.582,1039.012,1019.363,1038.465,1019.196,1038.07z"/>
	<path fill="#941C71" d="M1084.706,1059.631c-1.797-3.191-3.741-6.342-5.833-9.453s-4.318-6.047-6.678-8.811v18.264H1066v-27.877&#10;&#9;&#9;h5.109c0.885,0.885,1.864,1.971,2.937,3.258c1.072,1.287,2.166,2.662,3.278,4.123c1.113,1.463,2.219,2.977,3.319,4.547&#10;&#9;&#9;c1.1,1.568,2.132,3.076,3.098,4.525v-16.453h6.235v27.877H1084.706z"/>
	<path fill="#941C71" d="M1148.625,1036.58c-2.923,0-5.035,0.813-6.335,2.436c-1.301,1.623-1.951,3.842-1.951,6.656&#10;&#9;&#9;c0,1.369,0.161,2.609,0.482,3.721c0.322,1.113,0.805,2.072,1.448,2.877s1.448,1.428,2.414,1.871&#10;&#9;&#9;c0.966,0.441,2.092,0.664,3.379,0.664c0.697,0,1.293-0.014,1.79-0.041c0.496-0.025,0.932-0.08,1.308-0.16v-9.695h6.275v13.799&#10;&#9;&#9;c-0.751,0.295-1.958,0.609-3.621,0.945c-1.663,0.334-3.715,0.502-6.155,0.502c-2.092,0-3.989-0.322-5.692-0.965&#10;&#9;&#9;c-1.703-0.645-3.158-1.582-4.364-2.816c-1.207-1.232-2.139-2.748-2.796-4.545c-0.658-1.797-0.986-3.85-0.986-6.156&#10;&#9;&#9;c0-2.332,0.362-4.396,1.086-6.195c0.724-1.795,1.716-3.318,2.977-4.564c1.26-1.248,2.742-2.193,4.445-2.836&#10;&#9;&#9;c1.703-0.645,3.52-0.967,5.451-0.967c1.314,0,2.5,0.088,3.56,0.262c1.059,0.176,1.971,0.377,2.736,0.604&#10;&#9;&#9;c0.764,0.229,1.394,0.463,1.891,0.705c0.496,0.24,0.851,0.428,1.066,0.563l-1.81,5.029c-0.859-0.457-1.844-0.852-2.957-1.188&#10;&#9;&#9;C1151.153,1036.748,1149.939,1036.58,1148.625,1036.58z"/>
	<path fill="#941C71" d="M1218.781,1045.672c0,2.389-0.355,4.486-1.066,6.297c-0.711,1.809-1.684,3.324-2.916,4.545&#10;&#9;&#9;c-1.234,1.221-2.701,2.139-4.404,2.756s-3.535,0.926-5.492,0.926c-1.904,0-3.701-0.309-5.391-0.926s-3.164-1.535-4.424-2.756&#10;&#9;&#9;c-1.262-1.221-2.254-2.736-2.977-4.545c-0.725-1.811-1.086-3.908-1.086-6.297c0-2.387,0.375-4.484,1.125-6.295&#10;&#9;&#9;c0.752-1.811,1.764-3.332,3.037-4.566c1.273-1.232,2.75-2.158,4.426-2.775s3.439-0.926,5.289-0.926&#10;&#9;&#9;c1.904,0,3.701,0.309,5.391,0.926s3.164,1.543,4.426,2.775c1.26,1.234,2.252,2.756,2.977,4.566&#10;&#9;&#9;S1218.781,1043.285,1218.781,1045.672z M1197.502,1045.672c0,1.369,0.166,2.602,0.502,3.701s0.818,2.045,1.449,2.836&#10;&#9;&#9;c0.629,0.791,1.4,1.402,2.313,1.83c0.91,0.43,1.957,0.645,3.137,0.645c1.154,0,2.193-0.215,3.119-0.645&#10;&#9;&#9;c0.924-0.428,1.701-1.039,2.332-1.83s1.113-1.736,1.449-2.836c0.334-1.1,0.502-2.332,0.502-3.701c0-1.367-0.168-2.607-0.502-3.721&#10;&#9;&#9;c-0.336-1.113-0.818-2.064-1.449-2.855s-1.408-1.402-2.332-1.83c-0.926-0.43-1.965-0.645-3.119-0.645&#10;&#9;&#9;c-1.18,0-2.227,0.221-3.137,0.664c-0.912,0.441-1.684,1.061-2.313,1.85c-0.631,0.793-1.113,1.744-1.449,2.857&#10;&#9;&#9;S1197.502,1044.332,1197.502,1045.672z"/>
	<path fill="#941C71" d="M1252.973,1059.631v-27.877h18.828v5.27h-12.551v5.471h11.143v5.15h-11.143v6.717h13.475v5.27H1252.973z"/>
	<path fill="#941C71" d="M1313.916,1054.844c0.885,0,1.615-0.072,2.193-0.221c0.576-0.146,1.039-0.348,1.387-0.604&#10;&#9;&#9;c0.35-0.254,0.59-0.557,0.725-0.904c0.135-0.35,0.201-0.738,0.201-1.168c0-0.91-0.43-1.668-1.287-2.271&#10;&#9;&#9;c-0.859-0.604-2.334-1.254-4.426-1.951c-0.912-0.322-1.824-0.691-2.734-1.107c-0.912-0.414-1.73-0.938-2.455-1.568&#10;&#9;&#9;c-0.723-0.629-1.314-1.395-1.77-2.293c-0.457-0.898-0.684-1.99-0.684-3.279c0-1.287,0.242-2.445,0.725-3.479&#10;&#9;&#9;s1.166-1.912,2.051-2.635c0.885-0.725,1.957-1.281,3.219-1.67c1.26-0.389,2.682-0.584,4.264-0.584c1.877,0,3.5,0.201,4.867,0.604&#10;&#9;&#9;c1.369,0.402,2.494,0.846,3.379,1.328l-1.809,4.947c-0.779-0.402-1.645-0.756-2.596-1.064c-0.953-0.309-2.1-0.463-3.439-0.463&#10;&#9;&#9;c-1.502,0-2.582,0.207-3.238,0.623c-0.658,0.416-0.986,1.053-0.986,1.91c0,0.51,0.121,0.939,0.363,1.287&#10;&#9;&#9;c0.24,0.35,0.582,0.664,1.025,0.945c0.443,0.283,0.951,0.537,1.529,0.766c0.576,0.229,1.213,0.463,1.91,0.703&#10;&#9;&#9;c1.447,0.537,2.709,1.066,3.781,1.59c1.072,0.521,1.965,1.133,2.676,1.83c0.709,0.697,1.24,1.516,1.588,2.453&#10;&#9;&#9;c0.35,0.939,0.523,2.078,0.523,3.42c0,2.602-0.912,4.619-2.736,6.055c-1.822,1.434-4.572,2.152-8.246,2.152&#10;&#9;&#9;c-1.234,0-2.346-0.074-3.338-0.223c-0.992-0.146-1.871-0.328-2.635-0.543c-0.766-0.213-1.422-0.441-1.973-0.684&#10;&#9;&#9;c-0.549-0.24-1.012-0.469-1.387-0.684l1.77-4.988c0.832,0.457,1.857,0.865,3.078,1.227&#10;&#9;&#9;C1310.65,1054.664,1312.146,1054.844,1313.916,1054.844z"/>
	<path fill="#941C71" d="M1385.158,1031.754h6.275v27.877h-6.275v-11.826h-10.539v11.826h-6.277v-27.877h6.277v10.66h10.539&#10;&#9;&#9;V1031.754z"/>
	<path fill="#941C71" d="M1426.832,1059.631v-27.877h18.826v5.27h-12.551v5.471h11.143v5.15h-11.143v6.717h13.477v5.27H1426.832z"/>
	<path fill="#941C71" d="M1488.338,1031.432c4.184,0,7.389,0.744,9.615,2.232c2.225,1.488,3.338,3.803,3.338,6.939&#10;&#9;&#9;c0,1.959-0.449,3.547-1.348,4.768s-2.191,2.18-3.881,2.875c0.563,0.699,1.152,1.496,1.77,2.395s1.227,1.838,1.83,2.816&#10;&#9;&#9;s1.188,1.998,1.75,3.057c0.563,1.061,1.086,2.1,1.568,3.117h-7.016c-0.512-0.91-1.029-1.836-1.555-2.775&#10;&#9;&#9;c-0.525-0.938-1.063-1.85-1.615-2.734c-0.551-0.887-1.098-1.725-1.635-2.516c-0.539-0.791-1.078-1.508-1.615-2.152h-3.098v10.178&#10;&#9;&#9;h-6.275v-27.475c1.367-0.268,2.781-0.455,4.244-0.563C1485.877,1031.486,1487.186,1031.432,1488.338,1031.432z M1488.699,1036.781&#10;&#9;&#9;c-0.455,0-0.863,0.016-1.227,0.041c-0.361,0.027-0.703,0.055-1.025,0.08v7.563h1.77c2.359,0,4.049-0.295,5.068-0.885&#10;&#9;&#9;s1.529-1.596,1.529-3.016c0-1.369-0.516-2.34-1.549-2.918C1492.232,1037.07,1490.711,1036.781,1488.699,1036.781z"/>
	<path fill="#941C71" d="M1535.965,1059.631v-27.877h18.828v5.27h-12.551v5.471h11.143v5.15h-11.143v6.717h13.475v5.27H1535.965z"/>
</g>
<linearGradient id="SVGID_1_" gradientUnits="userSpaceOnUse" x1="900.0483" y1="665.2852" x2="1437.8787" y2="665.2852">
	<stop offset="0" style="stop-color:#3C1F4D"/>
	<stop offset="1" style="stop-color:#941C71"/>
</linearGradient>
<path fill="url(#SVGID_1_)" d="M1217.064,538.542l-47.063-47.063l-21.588,21.588L1300.4,665.283l-83.34,83.339l-25.357-25.367&#10;&#9;l57.973-57.973L1075.87,491.478l-173.8,173.813l173.8,173.801l47.063-47.068l47.068,47.068l21.161-21.166l-151.563-152.635&#10;&#9;l83.335-83.339l25.362,25.358l-57.972,57.981l173.805,173.801l173.805-173.809l-173.805-173.805L1217.064,538.542z M996.197,665.291&#10;&#9;l105.032,105.032l-25.358,25.359L945.472,665.291l130.398-130.407l25.358,25.367L996.197,665.291z M1133.73,665.283l36.271-36.263&#10;&#9;l36.262,36.263l-36.267,36.271L1133.73,665.283z M1394.527,665.283l-130.398,130.399l-25.363-25.359l105.041-105.04l-105.037-105.04&#10;&#9;l25.359-25.35L1394.527,665.283z"/>
</svg>